# xmcd
#
# Track frame offsets:
#	150
#	14910
#	28370
#	42532
#	55725
#	72632
#	95737
#	115792
#	131720
#	150687
#	178272
#	199820
#	217112
#	230590
#	257100
#	272102
#
# Disc length: 3869 seconds
#
# Revision: 1
# Processed by: cddbd v1.4PL0 Copyright (c) Steve Scherf et al.
# Submitted via: audiograbber 1.81.02
#
DISCID=060f1b10
DTITLE=John Denver - John Denver
DYEAR=1900
DGENRE=
TTITLE0=Take Me Home, Country Roads
TTITLE1=Eagle And The Hawk
TTITLE2=Annie's Song
TTITLE3=The Flower That Shattered The Stone
TTITLE4=Children Of The Universe
TTITLE5=SunShine On My Shoulders
TTITLE6=Ponies
TTITLE7=Higher Ground
TTITLE8=Rocky Mountain High
TTITLE9=A Little Further North
TTITLE10=Eagles and Horses
TTITLE11=Calypso
TTITLE12=Whispering Jesse
TTITLE13=Stoneheaven Sunset
TTITLE14=For You
TTITLE15=Windsong
EXTD=
EXTT0=
EXTT1=
EXTT2=
EXTT3=
EXTT4=
EXTT5=
EXTT6=
EXTT7=
EXTT8=
EXTT9=
EXTT10=
EXTT11=
EXTT12=
EXTT13=
EXTT14=
EXTT15=
PLAYORDER=
